<svg xmlns="http://www.w3.org/2000/svg" viewBox="0 0 644 209.68"><defs><style></style></defs><title>Wine Pal</title><g id="Layer_2" data-name="Layer 2"><g id="Layer_1-2" data-name="Layer 1"><path class="cls-1" d="M448.64,209.68h-1.4l-400.85-12A46.6,46.6,0,0,1,0,151V58.65A46.6,46.6,0,0,1,46.39,12l401-12c4.12,0,16.66,0,50.93,39.75,13,15,24.3,30.26,28.44,35.93H633a11,11,0,0,1,11,11v37a11,11,0,0,1-11,11H527.51c-4.11,5.62-15.37,20.69-28.26,35.61C465.19,209.68,452.73,209.68,448.64,209.68ZM46.47,24.49A35.44,35.44,0,0,0,11,59.81v91.66a35.36,35.36,0,0,0,35.44,35.21h.17L447.12,198.6c13.7-.14,50.3-42.52,72-72.63l1.64-2.29H633v-36H521.14l-1.65-2.29c-21.68-30.21-58.32-72.72-72-72.86Z"/><path class="cls-1" d="M139.54,69.68h13l-31.91,74h-11L95.14,90.46,72.36,143.68h-11l-20.26-74H54.62l14.17,55.11L92.31,69.68h9.55l14.38,55.42Z"/><path class="cls-1" d="M155,144.68l4-52h13.29l-4,52Zm5.22-76h14.59l-.95,13H159.22Z"/><path class="cls-1" d="M226.78,96.14q4.53,4.73,4.52,14c0,1.35,0,2.38-.1,3.08l-2.55,31.48h-13.3l2.56-30.94q.84-11.8-9.36-11.81-5.85,0-9.15,3.51t-3.83,9.78l-2.34,29.46H179.94l4-52h13l-.54,6.81a17.81,17.81,0,0,1,7.13-6,22.94,22.94,0,0,1,10-2.13Q222.27,91.4,226.78,96.14Z"/><path class="cls-1" d="M281.11,97.42q6,6.18,6,18a48.19,48.19,0,0,1-.32,5.27H251.58q.31,7,3.9,10.55t10.33,3.58a25.36,25.36,0,0,0,15.72-5.37l3.06,9a24.13,24.13,0,0,1-8.65,4.75,34.63,34.63,0,0,1-11,1.79,29.31,29.31,0,0,1-13.82-3.11A22,22,0,0,1,242,133a26.53,26.53,0,0,1-3.22-13.29,32,32,0,0,1,3.33-14.82,24.64,24.64,0,0,1,9.22-10.07,25.33,25.33,0,0,1,13.4-3.59Q275.09,91.25,281.11,97.42Zm-24.68,6.45q-3.37,3.27-4.43,9.81h24q.1-6.54-2.79-9.81a10.09,10.09,0,0,0-8-3.27A12.19,12.19,0,0,0,256.43,103.87Z"/><path class="cls-1" d="M380.76,75.32q6.32,5.64,6.32,15.45,0,11.6-6.89,17.75t-19.63,6.16H341.23l-2.22,29H325.42l5.88-74h31.55Q374.44,69.68,380.76,75.32ZM374,91.85q0-11.17-12.93-11.17H344.24l-1.86,24h16.86Q374,104.68,374,91.85Z"/><path class="cls-1" d="M432.08,96.29q4.88,4.62,4.88,14c0,1.38,0,2.45-.1,3.21l-2.39,30.21H422.12l.62-7.27a15,15,0,0,1-5.92,6,16.94,16.94,0,0,1-8.41,2.08,20.7,20.7,0,0,1-9.08-1.92,15.15,15.15,0,0,1-6.23-5.29,13.5,13.5,0,0,1-2.23-7.63q0-5.82,3-9.29t9.5-5.09a75.86,75.86,0,0,1,17.44-1.61h3.73l.11-2q.4-5.19-1.87-7.68t-7.68-2.49a27.2,27.2,0,0,0-8.26,1.4,40.23,40.23,0,0,0-8.56,3.89l-2.91-8.93a33.87,33.87,0,0,1,10.07-4.51,43.25,43.25,0,0,1,11.84-1.72Q427.2,91.67,432.08,96.29Zm-12,35.78a13.91,13.91,0,0,0,3.85-9.07l.22-2.32h-3a56.63,56.63,0,0,0-10.81.79q-3.86.8-5.43,2.48a6.5,6.5,0,0,0-1.58,4.64,6.23,6.23,0,0,0,2.27,5.06,9.11,9.11,0,0,0,6.06,1.9A11.31,11.31,0,0,0,420.08,132.07Z"/><path class="cls-1" d="M446.11,143.68l5.88-74h13.12l-5.88,74Z"/></g></g></svg>