<?xml version="1.0" encoding="UTF-8" standalone="no"?>
<!DOCTYPE svg PUBLIC "-//W3C//DTD SVG 20010904//EN"
              "http://www.w3.org/TR/2001/REC-SVG-20010904/DTD/svg10.dtd">

<svg xmlns="http://www.w3.org/2000/svg"
     width="5.91667in" height="4.43056in"
     viewBox="0 0 426 319">
  <path id="Selection"
        fill="none" stroke="black" stroke-width="1"
        d="M 82.00,217.00
           C 82.00,217.00 82.00,219.00 82.00,219.00
             68.00,225.52 56.63,232.92 44.00,241.66
             28.62,252.31 14.24,267.18 14.00,287.00
             13.86,298.86 16.14,312.50 29.00,317.16
             35.02,319.34 42.64,319.07 49.00,319.00
             58.01,318.89 67.11,316.09 75.00,311.82
             99.26,298.70 112.68,276.52 113.00,249.00
             113.05,244.12 112.39,235.69 111.32,231.00
             111.32,231.00 108.00,221.00 108.00,221.00
             108.00,221.00 130.00,209.00 130.00,209.00
             123.71,228.40 121.95,259.07 136.36,275.47
             141.37,281.18 151.96,281.67 157.83,277.06
             163.37,272.70 172.99,253.06 175.00,246.00
             177.35,254.26 173.77,267.17 182.19,272.77
             192.08,279.36 201.42,266.20 205.80,259.00
             205.80,259.00 225.25,222.00 225.25,222.00
             229.87,212.76 238.81,193.59 241.00,184.00
             241.00,184.00 248.78,207.00 248.78,207.00
             250.21,210.06 253.63,215.69 252.81,219.00
             252.23,221.32 248.38,225.98 246.79,228.00
             246.79,228.00 230.40,248.00 230.40,248.00
             227.99,251.02 224.37,255.16 223.60,259.00
             222.08,266.61 229.96,269.14 236.00,268.68
             254.17,267.30 276.65,257.33 278.83,237.00
             279.36,232.08 279.03,226.80 277.87,222.00
             277.05,218.61 275.10,214.33 276.18,211.00
             276.18,211.00 284.19,198.00 284.19,198.00
             284.19,198.00 299.00,171.00 299.00,171.00
             299.00,171.00 305.72,193.00 305.72,193.00
             306.72,195.33 309.54,200.34 308.71,202.72
             308.18,204.20 302.04,210.11 300.44,212.00
             293.92,219.71 286.49,230.56 286.22,241.00
             285.97,242.70 286.01,245.35 286.22,246.99
             289.77,261.34 309.24,252.17 317.00,247.55
             317.00,247.55 323.00,243.48 323.00,243.48
             330.52,237.56 337.44,228.05 336.68,218.00
             336.68,218.00 334.00,202.00 334.00,202.00
             342.50,201.12 344.58,198.02 359.00,198.00
             377.16,197.97 392.87,199.40 406.83,212.59
             411.68,217.17 415.86,224.24 416.47,231.00
             417.02,237.05 414.04,242.69 409.90,246.91
             408.31,248.53 403.91,251.65 403.17,253.26
             401.82,256.19 404.94,256.59 407.02,256.16
             410.52,255.42 415.34,252.26 417.91,249.82
             432.17,236.22 426.22,212.72 413.91,200.04
             403.58,189.39 386.75,183.07 372.00,183.00
             372.00,183.00 361.00,183.00 361.00,183.00
             353.16,183.04 347.43,184.46 340.00,186.72
             337.37,187.52 331.51,190.19 329.13,189.45
             326.42,188.61 324.59,184.40 323.47,182.00
             319.35,173.12 318.89,169.66 319.00,160.00
             319.06,154.82 319.81,150.94 321.35,146.00
             322.06,143.71 323.87,139.41 323.22,137.13
             322.44,134.38 319.51,133.54 317.00,133.19
             312.31,132.54 301.03,132.77 297.70,136.43
             294.95,139.45 292.93,151.00 290.69,156.00
             290.69,156.00 268.00,198.00 268.00,198.00
             262.20,187.81 259.95,178.67 261.92,167.00
             262.78,161.89 267.77,151.28 264.40,147.51
             260.10,142.71 242.71,144.70 239.44,150.13
             239.44,150.13 230.69,174.00 230.69,174.00
             230.69,174.00 202.68,236.00 202.68,236.00
             202.68,236.00 197.00,247.00 197.00,247.00
             195.08,240.25 196.60,235.61 198.12,229.00
             198.12,229.00 206.69,195.00 206.69,195.00
             207.72,185.96 199.78,185.08 193.24,187.00
             193.24,187.00 193.24,181.00 193.24,181.00
             194.25,168.95 188.32,158.97 175.00,161.47
             165.55,163.23 154.64,171.28 148.04,178.01
             148.04,178.01 140.91,185.67 140.91,185.67
             137.35,188.82 124.06,195.56 119.00,198.42
             119.00,198.42 102.00,207.49 102.00,207.49
             98.32,208.46 96.51,206.30 94.00,203.99
             94.00,203.99 81.00,192.80 81.00,192.80
             63.20,178.49 33.30,160.67 33.00,135.00
             32.78,115.78 41.85,103.17 55.00,90.00
             59.83,85.16 62.47,82.34 68.00,78.13
             101.75,52.42 152.72,26.49 196.00,26.00
             202.39,25.93 211.82,26.94 218.00,28.47
             222.84,29.68 227.71,31.16 232.00,33.76
             256.77,48.77 240.03,79.65 224.99,95.00
             221.79,98.26 219.55,100.33 216.00,103.20
             193.08,121.72 153.71,137.39 124.00,130.32
             119.44,129.24 113.82,126.93 110.00,124.21
             107.92,122.73 103.93,118.87 102.06,118.17
             97.25,116.37 98.32,122.53 99.28,125.00
             101.39,130.42 107.22,135.75 112.00,138.89
             120.39,144.40 132.07,146.88 142.00,147.00
             164.53,147.26 187.27,144.04 208.00,134.69
             235.94,122.09 261.57,95.85 267.39,65.00
             270.22,50.01 268.97,34.19 258.33,22.28
             239.14,0.81 209.58,-0.31 183.00,0.00
             165.55,0.21 145.27,6.30 129.00,12.32
             94.65,25.01 50.89,48.52 26.58,76.04
             12.62,91.84 -3.59,114.57 0.46,137.00
             4.56,159.71 26.41,178.01 44.00,190.85
             44.00,190.85 82.00,217.00 82.00,217.00 Z
           M 181.00,179.00
           C 180.95,195.35 169.96,220.67 163.42,236.00
             160.66,242.49 158.13,251.33 151.00,254.00
             148.47,248.22 148.03,246.29 148.00,240.00
             147.91,221.72 149.82,212.12 159.15,196.00
             164.49,186.79 169.57,179.29 181.00,179.00 Z
           M 317.00,212.00
           C 319.99,224.31 314.13,237.33 301.00,240.00
             301.52,229.38 308.50,218.14 317.00,212.00 Z
           M 94.00,229.00
           C 94.75,232.98 95.80,236.94 95.96,241.00
             96.61,257.62 87.53,274.63 74.91,285.00
             69.41,289.52 59.24,294.69 52.00,294.87
             47.60,294.98 42.97,293.54 41.26,288.96
             40.94,287.17 40.97,283.92 41.26,282.00
             41.47,262.95 61.67,248.33 76.00,238.67
             81.59,234.90 87.30,230.36 94.00,229.00 Z
           M 260.00,232.00
           C 259.06,242.32 251.10,251.53 241.00,254.00
             241.00,254.00 260.00,232.00 260.00,232.00 Z" />
</svg>
